<?xml version="1.0" encoding="UTF-8" standalone="no"?>
<!DOCTYPE svg PUBLIC "-//W3C//DTD SVG 1.1//EN" "http://www.w3.org/Graphics/SVG/1.1/DTD/svg11.dtd">
<svg version="1.1" xmlns="http://www.w3.org/2000/svg" width="100%" height="100%"
     viewBox="0 0 18 10" xml:space="preserve"
     style="fill-rule: evenodd; clip-rule: evenodd; stroke-linejoin:round; stroke-miterlimit:2;">
<g transform="matrix(-0.0247114,-3.02628e-18,2.90782e-18,-0.0237442,23.7506,13.5573)">
  <path
    fill="#4D7A97"
    d="M254.6,477.479
  C259.711,473.272 561.717,170.223 561.717,170.223
  C561.717,170.223 576.205,153.951 597.839,153.983
  C621.181,154.019 636.425,170.096 636.425,170.096
  C636.425,170.096 939.167,475.94 940.854,477.463
  C967.2,501.255 956.012,536.939 942.827,551.356
  C928.606,566.906 896.33,575.498 868.319,549.101
  C865.351,546.304 604.846,285.516 604.846,285.516
  C604.846,285.516 601.137,280.823 597.481,280.661
  C594.25,280.517 589.683,285.449 589.683,285.449
  C589.683,285.449 332.794,543.858 326.478,549.801
  C312.614,562.847 276.463,576.895 252.279,552.019
  C218.24,517.006 250.72,480.673 254.6,477.479Z" />
</g>
</svg>