<?xml version="1.0" encoding="UTF-8"?>
<svg id="Layer_1" data-name="Layer 1" xmlns="http://www.w3.org/2000/svg" version="1.1" viewBox="0 0 40 44">
  <defs>
    <style>
      .cls-1 {
        fill: #f18900;
      }
      .cls-1, .cls-2, .cls-3 {
        stroke-width: 10;
      }
      .cls-2 {
        fill: #ef8700;
      }
    </style>
  </defs>
  <polygon class="cls-2" points="19.2 43.9 .2 33 0 11.1 18.9 0 38 10.8 38 12.5 36.2 12.5 36 12.8 35.5 12.5 35.3 12.5 35.3 12.4 18.9 3.1 2.7 12.6 2.8 31.5 19.2 40.8 35.5 31.2 35.5 31.1 35.7 31.1 36.1 30.8 36.3 31.1 38.1 31.1 38.1 32.8 19.2 43.9"/>
  <g class="cls-1" >
    <path d="M20.8,15.1 c2.8,0,4.4,1.2,5.3,2.4l-2.3,2.1c-.6-.9-1.6-1.4-2.8-1.4-2.1,0-3.6,1.6-3.6,3.9s1.5,3.9,3.6,3.9,2.2-.6,2.8-1.4l2.3,2.1c-.9,1.2-2.6,2.4-5.3,2.4-4.1,0-7.1-2.9-7.1-7.1s3-7,7.1-7Z"/>
  </g>
</svg>